<?xml version="1.0" standalone="no"?>
<!DOCTYPE svg PUBLIC "-//W3C//DTD SVG 20010904//EN"
 "http://www.w3.org/TR/2001/REC-SVG-20010904/DTD/svg10.dtd">
<svg version="1.0" xmlns="http://www.w3.org/2000/svg"
 width="81.000000pt" height="81.000000pt" viewBox="0 0 81.000000 81.000000"
 preserveAspectRatio="xMidYMid meet">
<metadata>
Created by potrace 1.14, written by Peter Selinger 2001-2017
</metadata>
<g transform="translate(0.000000,81.000000) scale(0.100000,-0.100000)"
fill="#000000" stroke="none">
<path d="M596 718 c-22 -12 -20 -45 4 -58 15 -8 24 -6 40 10 11 11 17 26 14
34 -7 18 -37 26 -58 14z"/>
<path d="M279 706 c-36 -17 -39 -72 -5 -87 39 -18 41 -49 6 -82 -29 -26 -32
-27 -60 -12 -17 9 -30 20 -30 25 0 17 -50 11 -57 -6 -9 -23 10 -49 36 -50 41
-2 57 -28 55 -90 -1 -64 -13 -77 -61 -68 -42 8 -69 -28 -53 -70 8 -23 15 -27
42 -24 23 2 36 10 43 26 13 30 47 38 79 17 29 -20 34 -50 10 -76 -12 -14 -13
-22 -4 -38 6 -12 15 -21 20 -21 25 0 40 15 40 40 0 31 23 55 44 47 8 -3 28 -2
45 3 24 7 33 4 50 -14 12 -12 21 -34 21 -49 0 -35 34 -59 65 -45 13 6 25 19
28 29 6 22 -19 59 -39 59 -16 0 -47 62 -35 70 4 3 15 16 24 29 21 31 49 36 94
15 31 -15 36 -15 50 -2 9 10 13 24 8 37 -5 17 -14 21 -43 19 -58 -2 -79 9 -86
44 -8 41 16 68 61 68 26 0 36 5 45 26 11 23 10 29 -11 45 -26 21 -53 13 -71
-20 -15 -28 -56 -35 -85 -14 -27 20 -31 49 -10 77 16 21 4 56 -20 56 -18 0
-47 -29 -39 -41 3 -5 2 -18 -1 -29 -5 -15 -15 -20 -40 -20 -39 0 -62 28 -47
58 23 47 -21 92 -69 68z"/>
<path d="M673 269 c-15 -15 -5 -39 17 -39 22 0 32 24 17 39 -6 6 -14 11 -17
11 -3 0 -11 -5 -17 -11z"/>
<path d="M166 154 c-20 -20 -20 -27 2 -46 36 -32 84 16 50 50 -16 16 -33 15
-52 -4z"/>
</g>
</svg>
